<svg xmlns="http://www.w3.org/2000/svg" width="63" height="63" viewBox="0 0 63 63">
    <g fill="none" fill-rule="evenodd">
        <path fill="#FFCB0A" d="M31.175 0C48.392 0 62.35 13.986 62.35 31.238S48.392 62.476 31.175 62.476C13.957 62.476 0 48.49 0 31.238A31.236 31.236 0 0 1 9.12 9.139 31.109 31.109 0 0 1 31.176 0"/>
        <path fill="#153B65" d="M31.176 2.583c15.794 0 28.598 12.83 28.598 28.656 0 15.826-12.804 28.655-28.598 28.655-15.794 0-28.598-12.83-28.598-28.655a28.674 28.674 0 0 1 8.373-20.266 28.558 28.558 0 0 1 20.225-8.39"/>
        <path fill="#FFF" d="M26.327 30.685l1.719 15c.046.417-.115.831-.43 1.107-.326.267-.76.359-1.166.246-5.524-1.6-8.53-5.965-9.39-11.437-1.656-10.332 7.86-17.341 9.267-4.92v.004zm-.37-14.577c.157-.423.463-.773.86-.984.554-.246.49 0 .306.245-.06.061-.123.123-.123.186.798-.062 1.841 0 2.21.615.002.002-2.392-.49-3.25-.059l-.003-.003zm5.83-.371a1.515 1.515 0 0 1-.555.246 1.201 1.201 0 0 1-1.227-.556c.453.333 1.082.28 1.473-.124.43-.36.74.132.31.44l-.001-.006zm-.123 2.275a2.202 2.202 0 0 1-.86.616 2.233 2.233 0 0 1-2.393-.556c.91.425 1.993.14 2.578-.677.55-.853 1.353-.177.678.623l-.003-.006zM26.94 30.624l1.718 15.004c.058.63-.194 1.25-.675 1.66a1.76 1.76 0 0 1-1.718.37c-5.707-1.66-8.898-6.148-9.82-11.929a14.302 14.302 0 0 1 1.224-8.733 8.155 8.155 0 0 1 2.148-2.645 4.01 4.01 0 0 1 2.7-.926 3.987 3.987 0 0 1 2.89 1.97 12.897 12.897 0 0 1 1.533 5.229zm15.28-10.27l.186.186.37.185c.06.061.185.061.245.123.06 0 .123.124.123.186l-.061 1.107c-.061.123-.185.185-.245.245-.222.155-.474.26-.74.308a2.653 2.653 0 0 1-.74-.308c-.06-.06-.185-.123-.245-.245l-.06-1.168c0-.062.06-.124.122-.186a.462.462 0 0 0 .245-.123l.37-.185.185-.186c.061-.06.061-.06.123-.06l.123.122zm-2.208 0l.185.186.37.185c.06.061.185.061.245.123.06 0 .123.124.123.186v1.107c-.061.123-.185.185-.245.245-.222.155-.474.26-.74.308a2.653 2.653 0 0 1-.74-.308c-.06-.06-.185-.123-.245-.245l-.06-1.168c0-.062.06-.124.122-.186a.462.462 0 0 0 .245-.123l.37-.185.185-.186h.061c.064 0 .123 0 .123.062h.001zm-20.927-4.427a.462.462 0 0 0 .245-.123l.37-.186.184-.185c.061-.061.061-.061.123-.061s.123 0 .123.061l.185.185.37.186c.061.06.185.06.245.123.061 0 .123.123.123.185v1.107c-.06.124-.185.186-.245.246-.222.154-.474.26-.74.307a2.653 2.653 0 0 1-.74-.307c-.06-.061-.184-.123-.244-.246l-.061-1.168c-.06-.063 0-.124.062-.124zm1.105 2.399a.462.462 0 0 0 .245-.124l.37-.185.184-.185c.061-.061.061-.061.123-.061s.123 0 .123.06l.185.186.37.185c.061.062.185.062.245.124.061 0 .123.123.123.185v1.168c-.061.123-.185.185-.245.246-.222.154-.474.259-.74.307a2.653 2.653 0 0 1-.74-.307c-.06-.061-.184-.124-.244-.246l-.061-1.168c-.061-.064 0-.124.062-.186zm-2.21 0a.462.462 0 0 0 .246-.124l.37-.185.184-.185c.061-.061.061-.061.123-.061s.123 0 .123.06l.185.186.37.185c.061.062.185.062.245.124.061 0 .123.123.123.185v1.168c-.06.123-.185.185-.245.246-.222.154-.474.259-.74.307a2.653 2.653 0 0 1-.74-.307c-.06-.061-.184-.124-.244-.246l-.061-1.168c-.065-.064 0-.124.062-.186zm-2.208 0a.462.462 0 0 0 .245-.124l.37-.185.185-.185c.06-.061.06-.061.123-.061.061 0 .122 0 .122.06l.185.186.37.185c.061.062.185.062.245.124.061 0 .123.123.123.185v1.168c-.06.123-.185.185-.245.246a1.57 1.57 0 0 1-.74.307 2.653 2.653 0 0 1-.74-.307c-.06-.061-.184-.124-.244-.246l-.061-1.168c-.062-.064 0-.124.06-.186h.002zm5.523 2.46a.462.462 0 0 0 .245-.124l.37-.185.185-.185c.061-.062.061-.062.123-.062s.123 0 .123.062l.185.185.37.185c.06.061.185.061.245.123.06 0 .123.124.123.186v1.168c-.061.123-.185.185-.245.245-.222.155-.474.26-.74.308a2.653 2.653 0 0 1-.74-.308c-.06-.06-.184-.123-.245-.245l-.06-1.168c-.063-.063-.002-.124.06-.187l.001.001zm-2.209 0a.462.462 0 0 0 .245-.124l.37-.185.185-.185c.061-.062.061-.062.123-.062s.123 0 .123.062l.185.185.37.185c.061.061.185.061.245.123.061 0 .123.124.123.186v1.168c-.061.123-.185.185-.245.245-.222.155-.474.26-.74.308a2.653 2.653 0 0 1-.74-.308c-.06-.06-.184-.123-.244-.245l-.061-1.168c-.062-.063-.001-.124.06-.187l.001.001zm-2.208 0a.462.462 0 0 0 .245-.124l.37-.185.184-.185h.185c.061 0 .123 0 .123.06l.185.186.37.185c.061.061.185.061.245.124.061 0 .123.123.123.185l-.061 1.107c-.061.123-.185.185-.245.245-.222.155-.474.26-.74.308a2.653 2.653 0 0 1-.74-.308c-.06-.06-.184-.123-.244-.245l-.061-1.168c-.064-.063-.003-.124.059-.187l.002.001zm-2.21 0a.462.462 0 0 0 .246-.124l.37-.185.184-.185c.062-.062.062-.062.123-.062.062 0 .123 0 .123.062l.185.185.37.185c.061.061.185.061.245.123.061 0 .123.124.123.186v1.168c-.06.123-.185.185-.245.245-.222.155-.474.26-.74.308a2.653 2.653 0 0 1-.74-.308c-.06-.06-.184-.123-.244-.245l-.061-1.168c-.063-.063-.002-.124.059-.187l.003.001zm16.57 2.46a.462.462 0 0 0 .246-.124l.37-.185.184-.186c.061-.06.061-.06.123-.06s.123 0 .123.06l.185.186.37.185c.061.061.185.061.245.123.061 0 .123.123.123.185V24.6c-.061.123-.185.185-.245.245-.222.155-.474.26-.74.308a2.653 2.653 0 0 1-.74-.308c-.06-.06-.184-.123-.244-.245l-.061-1.169c-.064-.063-.002-.124.059-.186l.002.001zm-2.208 0a.462.462 0 0 0 .245-.124l.37-.185.184-.186c.061-.06.061-.06.123-.06s.123 0 .123.06l.185.186.37.185c.061.061.185.061.245.123.061 0 .123.123.123.185V24.6c-.06.123-.185.185-.245.245-.222.155-.474.26-.74.308a2.653 2.653 0 0 1-.74-.308c-.06-.06-.184-.123-.244-.245l-.061-1.169c-.064-.063-.003-.124.059-.186l.003.001zm-2.21 0a.462.462 0 0 0 .246-.124l.37-.185.185-.186c.06-.06.06-.06.123-.06.061 0 .122 0 .122.06l.185.186.37.185c.061.061.185.061.245.123.061 0 .123.123.123.185V24.6c-.06.123-.185.185-.245.245-.222.155-.474.26-.74.308a2.653 2.653 0 0 1-.74-.308c-.06-.06-.184-.123-.244-.245l-.061-1.169c-.065-.063-.003-.124.058-.186l.004.001zm-11.045 0a.462.462 0 0 0 .245-.124l.37-.185.184-.186c.061-.06.061-.06.123-.06s.123 0 .123.06l.185.186.37.185c.061.061.185.061.245.123.061 0 .123.123.123.185V24.6c-.061.123-.185.185-.245.245-.222.155-.474.26-.74.308a2.653 2.653 0 0 1-.74-.308c-.06-.06-.184-.123-.244-.245l-.061-1.169c-.065-.063-.003-.124.058-.186l.004.001zm-2.21 0a.462.462 0 0 0 .246-.124l.37-.185.184-.186c.061-.06.061-.06.123-.06s.123 0 .123.06l.185.186.37.185c.061.061.185.061.245.123.061 0 .123.123.123.185l.061 1.169c-.06.123-.185.185-.245.245-.222.155-.474.26-.74.308a2.653 2.653 0 0 1-.74-.308c-.06-.06-.184-.123-.244-.245l-.061-1.169c-.126-.063-.065-.124-.003-.186l.004.001zm30.87 0a.462.462 0 0 0 .244-.124l.37-.185.185-.186h.185c.061 0 .123 0 .123.061l.185.186.37.185c.06.061.185.061.245.123.06 0 .123.124.123.186l-.061 1.107c-.061.123-.185.185-.245.245-.222.155-.474.26-.74.308a2.653 2.653 0 0 1-.74-.308c-.06-.06-.185-.123-.245-.245l-.06-1.169c-.067-.063-.005-.124.056-.186l.004.001zm-2.21 0a.462.462 0 0 0 .246-.124l.37-.185.184-.186c.061-.06.061-.06.123-.06s.123 0 .123.06l.185.186.37.185c.061.061.185.061.245.123.061 0 .123.123.123.185V24.6c-.061.123-.185.185-.245.245-.222.155-.474.26-.74.308a2.653 2.653 0 0 1-.74-.308c-.06-.06-.184-.123-.244-.245l-.061-1.169c-.066-.063-.005-.124.057-.186l.005.001zm-2.208 0a.462.462 0 0 0 .245-.124l.37-.185.184-.186c.061-.06.061-.06.123-.06s.123 0 .123.06l.185.186.37.185c.061.061.185.061.245.123.061 0 .123.123.123.185V24.6c-.06.123-.185.185-.245.245a1.57 1.57 0 0 1-.74.308 2.653 2.653 0 0 1-.74-.308c-.06-.06-.184-.123-.244-.245l-.123-1.169c-.004-.063.059-.124.118-.186l.006.001zm-2.148 0a.462.462 0 0 0 .245-.124l.37-.185.185-.186c.06-.06.06-.06.123-.06.062 0 .123 0 .123.06l.184.186.37.185c.061.061.185.061.245.123.061 0 .123.123.123.185V24.6c-.06.123-.185.185-.245.245-.222.155-.474.26-.74.308a2.653 2.653 0 0 1-.74-.308c-.06-.06-.184-.123-.244-.245l-.061-1.169c-.128-.063-.066-.124.056-.186l.006.001zm-23.203 2.458a.462.462 0 0 0 .245-.123l.37-.186.185-.185c.06-.061.06-.061.123-.061.062 0 .123 0 .123.061l.185.185.37.186c.06.06.184.06.244.123.061 0 .123.123.123.185l-.065 1.23c-.061.123-.185.185-.245.245-.222.155-.474.26-.74.308a2.653 2.653 0 0 1-.74-.308c-.06-.06-.185-.123-.245-.245l-.06-1.23c.005-.062.066-.123.127-.185zm-2.148 0a.462.462 0 0 0 .245-.123l.37-.186.185-.185c.06-.061.06-.061.123-.061.062 0 .123 0 .123.061l.185.185.37.186c.06.06.185.06.245.123.06 0 .123.123.123.185l-.061 1.23c-.061.123-.185.185-.245.245-.222.155-.474.26-.74.308a2.653 2.653 0 0 1-.74-.308c-.06-.06-.185-.123-.245-.245l-.057-1.23c-.065-.062 0-.123.12-.185zm1.043 2.46a.462.462 0 0 0 .245-.123l.37-.186.185-.185c.06-.061.06-.061.123-.061.062 0 .123 0 .123.061l.185.185.37.186c.06.06.184.06.245.123.06 0 .123.123.123.185l-.062 1.23c-.06.123-.184.185-.245.245-.221.154-.474.26-.74.308a2.653 2.653 0 0 1-.739-.308c-.06-.061-.185-.123-.245-.246l-.06-1.229c0-.062.061-.124.123-.185h-.001zm-2.148 0a.462.462 0 0 0 .245-.123l.37-.186.185-.185h.123c.061 0 .123 0 .123.061l.185.185.37.186c.06.06.185.06.245.123.06 0 .123.123.123.185l-.061 1.23c-.061.123-.185.185-.245.245-.222.154-.474.26-.74.308a2.653 2.653 0 0 1-.74-.308c-.06-.061-.185-.123-.245-.245l-.062-1.23c-.059-.123 0-.185.125-.246zm1.105 2.46a.462.462 0 0 0 .245-.124l.37-.185.185-.185c.06-.061.06-.061.123-.061.062 0 .123 0 .123.06l.185.186.37.185c.06.061.185.061.245.124.06 0 .123.123.123.185l-.061 1.23c-.061.122-.185.185-.245.245-.222.154-.474.259-.74.307a2.653 2.653 0 0 1-.74-.307c-.06-.061-.185-.123-.245-.246l-.057-1.23c-.065-.061 0-.123.12-.184zm0 4.92a.462.462 0 0 0 .245-.124l.37-.185.185-.186c.06-.06.06-.06.123-.06.062 0 .123 0 .123.06l.185.186.37.185c.06.061.185.061.245.123.06 0 .123.123.123.185l-.061 1.23c-.061.123-.185.185-.245.245-.222.155-.474.26-.74.308a2.653 2.653 0 0 1-.74-.308c-.06-.06-.185-.123-.245-.245l-.057-1.23c-.065-.062 0-.124.12-.185zm1.044-2.459a.462.462 0 0 0 .245-.123l.37-.185.185-.186c.06-.06.06-.06.123-.06.062 0 .123 0 .123.06l.185.186.37.185c.06.061.184.061.244.123.061 0 .123.123.123.185l-.06 1.23c-.062.123-.185.185-.246.245-.221.155-.474.26-.74.308a2.653 2.653 0 0 1-.739-.308c-.061-.06-.185-.123-.245-.245l-.061-1.23c0-.063.061-.126.123-.185zm-2.148 0a.462.462 0 0 0 .245-.123l.37-.185.185-.186h.123c.06 0 .123 0 .123.062l.185.185.37.185c.06.061.185.061.245.123.06 0 .123.124.123.186l-.061 1.23c-.061.122-.185.184-.245.245-.222.154-.474.259-.74.307a2.653 2.653 0 0 1-.74-.307c-.06-.062-.185-.124-.245-.246l-.063-1.232c-.059-.122 0-.185.125-.244zm18.718-7.38a.462.462 0 0 0 .245-.122l.37-.186.185-.185c.06-.061.06-.061.122-.061s.123 0 .123.061l.185.185.37.186c.061.06.185.06.245.123.061 0 .123.123.123.185v1.168c-.06.124-.185.186-.245.246-.222.154-.474.26-.74.308a2.653 2.653 0 0 1-.74-.308c-.06-.061-.184-.123-.244-.246l-.061-1.168c-.061-.064 0-.125.06-.187l.002.002zm-2.21 0a.462.462 0 0 0 .246-.122l.37-.186.185-.185h.123c.06 0 .123 0 .123.061l.185.185.37.186c.06.06.184.06.244.123.061 0 .123.123.123.185v1.107c-.06.124-.185.186-.245.246-.221.154-.474.26-.74.308a2.653 2.653 0 0 1-.739-.308c-.061-.061-.185-.123-.245-.246l-.061-1.168c-.062-.064 0-.125.06-.187l.002.002zm1.106 2.46a.462.462 0 0 0 .245-.123l.37-.185.185-.185c.06-.061.06-.061.123-.061.061 0 .122 0 .122.06l.185.186.37.185c.061.062.185.062.245.124.061 0 .123.123.123.185v1.168c-.06.123-.185.186-.245.246-.222.154-.474.259-.74.307a2.653 2.653 0 0 1-.74-.307c-.06-.061-.184-.123-.244-.246l-.061-1.168c-.062-.064-.001-.126.06-.187l.002.002zm1.105 2.46a.462.462 0 0 0 .245-.123l.37-.185.184-.185c.061-.062.061-.062.123-.062s.123 0 .123.062l.185.185.37.185c.061.061.185.061.245.123.061 0 .123.124.123.186v1.162c-.06.124-.185.186-.245.246-.222.154-.474.26-.74.308a2.653 2.653 0 0 1-.74-.308c-.06-.061-.184-.123-.244-.246l-.061-1.168c-.062-.058-.001-.12.06-.181l.002.001zm-2.21 0a.462.462 0 0 0 .246-.123l.37-.185.185-.185h.123c.06 0 .123 0 .123.06l.184.186.37.185c.061.061.185.061.245.124.061 0 .123.123.123.185v1.101c-.06.124-.185.186-.245.246-.222.154-.474.26-.74.308a2.653 2.653 0 0 1-.74-.308c-.06-.061-.184-.123-.244-.246l-.061-1.168c-.063-.058-.001-.12.06-.181l.002.001zm1.104 2.46a.462.462 0 0 0 .245-.123l.37-.185.185-.186c.06-.06.06-.06.123-.06.062 0 .123 0 .123.06l.184.186.37.185c.061.061.185.061.245.123.061 0 .123.123.123.185v1.169c-.06.123-.185.185-.245.245-.221.155-.474.26-.74.308a2.653 2.653 0 0 1-.74-.308c-.06-.06-.184-.123-.244-.245l-.061-1.169c-.061-.063 0-.126.062-.185zm4.419-5.411c-.062 0-.123.06-.185.06a2.653 2.653 0 0 1-.74-.307c-.061-.06-.185-.123-.245-.245l-.058-1.23c0-.062.06-.124.123-.186a.462.462 0 0 0 .245-.123l.37-.185.184-.186c.061-.06.061-.06.123-.06s.123 0 .123.06l.185.186.37.185c.061.061.185.061.245.123.061 0 .123.123.123.185l-.06.927c-.298.233-.568.499-.804.794v.002zm-.86 2.275a.885.885 0 0 1-.43.123 2.653 2.653 0 0 1-.74-.307c-.06-.061-.184-.123-.244-.246l-.061-1.168c0-.061.06-.123.123-.185a.462.462 0 0 0 .245-.124l.37-.185.185-.185c.06-.061.06-.061.123-.061.062 0 .123 0 .123.06l.185.186.37.185c.06.062.184.062.306.124a4.066 4.066 0 0 0-.554 1.721v.062zm-5.707-1.783c.061 0 .123-.062.185-.062l.37-.185.185-.185c.06-.061.06-.061.123-.061.062 0 .123 0 .123.06l.185.186.37.185c.06.062.184.062.244.124.061 0 .123.123.123.185v1.107c-.06.123-.185.185-.245.246-.221.154-.474.259-.74.307l-.554-.185c-.124-.556-.247-1.171-.369-1.724v.002zm-.925-2.521a.989.989 0 0 0 .434-.25l.185-.185c.061-.061.061-.061.123-.061s.123 0 .123.061l.185.185.37.186c.06.06.185.06.245.123.06 0 .123.123.123.185l-.061 1.23c-.061.123-.185.185-.245.245a2.266 2.266 0 0 1-.675.308c-.204-.7-.472-1.38-.803-2.03l-.004.003zm-1.472-1.784v-.43c0-.062.06-.124.122-.186a.319.319 0 0 0 .246-.123l.37-.185.184-.186c.061-.06.061-.06.123-.06s.123 0 .123.06l.185.186.37.185c.061.061.185.061.245.123.061 0 .123.123.123.185V24.6c-.061.123-.185.185-.245.245a2.267 2.267 0 0 1-.675.308c-.304-.5-.7-.94-1.168-1.293l-.003.002zm-1.718-.74a.847.847 0 0 0 .245-.186l.185-.186h.184c.061 0 .123 0 .123.062l.185.185.37.185c.061.061.185.061.245.123.061 0 .123.124.123.186v.37a4.045 4.045 0 0 0-1.657-.739h-.003zm-2.7.675v-.37c0-.061.06-.123.123-.185.123-.062.185-.062.307-.124l.37-.185.184-.185c.061-.061.061-.061.123-.061s.123 0 .123.06l.185.186c.094.075.197.138.307.185a4.202 4.202 0 0 0-1.72.681l-.002-.002zm-1.47 1.293a2.042 2.042 0 0 1-.37-.185c-.061-.062-.185-.124-.245-.246l-.061-1.168c0-.061.06-.123.123-.186a.462.462 0 0 0 .245-.123l.37-.185.185-.185c.06-.062.06-.062.122-.062s.123 0 .123.062l.185.185.37.185c.061.061.185.061.245.123.061 0 .123.124.123.186v.37c-.123.061-.245.186-.37.246a5.232 5.232 0 0 0-1.045.983zm-1.473 2.336c-.061-.06-.185-.123-.245-.245l-.062-1.229c0-.06.06-.123.123-.185a.462.462 0 0 0 .245-.123l.37-.185.185-.186c0-.06.06-.06.123-.06.061 0 .122 0 .122.06l.185.186.061.06c-.307.432-.614.927-.859 1.353-.064.186-.186.37-.248.555zm-.86 2.583a.462.462 0 0 0-.244-.123c-.061-.061-.185-.123-.245-.245l-.061-1.23c0-.06.06-.123.123-.185a.462.462 0 0 0 .245-.123l.37-.186.184-.185c.062-.061.062-.061.123-.061.062 0 .123 0 .123.061l.061.061c-.31.71-.537 1.454-.678 2.216zm-.369 2.583a.37.37 0 0 1-.245.062 2.653 2.653 0 0 1-.74-.308c-.06-.061-.185-.123-.245-.246l-.06-1.229c0-.061.06-.123.122-.185a.462.462 0 0 0 .245-.124l.37-.185.185-.185c.061-.061.061-.061.123-.061s.123 0 .123.06l.185.186c.06.061.123.061.185.123-.123.678-.185 1.354-.246 2.092h-.002zm-5.278.308c.061.061.123.061.185.123.123.061.185.061.307.123.061 0 .123.062.123.186v1.537c.027.185.141.345.307.43l.37.186c.123.061.185.061.307.123.061 0 .123.061.123.185v1.537c.026.185.14.346.307.431l.37.185c.13.078.278.12.43.124.14-.05.284-.09.43-.124l.37-.185a.575.575 0 0 0 .306-.43v-1.541c0-.062.061-.124.123-.186.123-.06.185-.06.307-.123l.37-.185a.575.575 0 0 0 .307-.431v-1.535c0-.061.061-.123.123-.185.061 0 .123 0 .123-.062-.001.905.06 1.81.185 2.706.925 5.903 4.235 10.453 10.064 12.175a2.172 2.172 0 0 0 2.025-.43 2.324 2.324 0 0 0 .798-1.968l-1.727-15.003V30.5h.061c.123.061.185.061.307.124.061 0 .123.06.123.185v1.535c.026.185.14.346.307.43l.37.186c.123.061.185.061.307.123.06 0 .123.061.123.186v1.537c.026.185.14.345.307.43l.37.186c.13.077.278.12.43.123.14-.05.284-.09.43-.123l.37-.186a.575.575 0 0 0 .306-.43V33.27c0-.06.061-.123.123-.185.123-.061.185-.061.307-.123l.37-.185a.575.575 0 0 0 .307-.431v-1.538c0-.061.061-.123.123-.185.06 0 .185-.062.245-.062l-1.481 19.064a.265.265 0 0 1-.245.245 7.413 7.413 0 0 1-1.166.061c-9.751.023-17.953-7.32-19.025-17.031l-.002-.001zm-.123-2.337a.989.989 0 0 0 .43-.245l.185-.185c.061-.062.061-.062.123-.062s.123 0 .123.062l.185.185.37.185c.061.061.185.061.245.123.061 0 .123.124.123.186l-.061 1.227c-.061.123-.185.186-.245.246-.222.154-.474.259-.74.307a2.266 2.266 0 0 1-.675-.307 15.028 15.028 0 0 1-.06-1.722h-.003zm.185-2.52c.061 0 .061.06.123.06.061.062.185.062.245.124.061 0 .123.123.123.185l-.063 1.229c-.06.123-.185.185-.245.245l-.37.185.187-2.029zm.614-2.891c.061.123.185.185.245.245l.37.186c.061.06.185.06.245.123.061 0 .123.123.123.185l-.06 1.229c-.06.123-.184.185-.244.245-.222.155-.474.26-.74.308-.185-.061-.307-.123-.49-.185.132-.79.316-1.57.55-2.336h.001zm1.043-2.705v.123c.027.185.141.346.307.43l.37.186c.061.061.185.061.245.123.061 0 .123.123.123.185v1.108c-.061.123-.185.185-.245.245-.222.154-.474.26-.74.308a2.653 2.653 0 0 1-.74-.308c-.06-.061-.122-.061-.122-.123.203-.781.471-1.543.803-2.278zm1.227-2.214a.848.848 0 0 0 .185.246l.37.185c.06.061.185.061.245.123.06 0 .123.124.123.186v1.168c-.061.123-.185.185-.245.245-.222.155-.474.26-.74.308a2.653 2.653 0 0 1-.74-.308c-.06-.06-.184-.123-.245-.185.277-.693.629-1.353 1.049-1.969l-.002.001zm1.534-2.09c0 .06.061.06.123.122.062.063.185.062.245.124.061 0 .123.123.123.185v1.107c-.061.123-.185.185-.245.246-.222.154-.474.259-.74.307a2.653 2.653 0 0 1-.74-.307h-.06c.376-.634.81-1.232 1.296-1.786l-.002.001zm2.885-2.768a.848.848 0 0 0 .185.245l.37.186c.06.06.184.06.245.123.06 0 .123.123.123.185l-.061 1.107c-.062.124-.185.186-.246.246-.221.154-.474.259-.74.307a2.653 2.653 0 0 1-.739-.307c-.06-.061-.185-.123-.245-.246l-.06-.86-.062.06-.061.062-.061.741c-.061.123-.185.185-.245.246-.222.154-.474.259-.74.307-.06 0-.123-.061-.245-.061.818-.828 1.68-1.61 2.584-2.342h-.002zm2.025-1.415l-.061.8c-.061.123-.185.185-.245.245-.222.154-.474.26-.74.308a2.196 2.196 0 0 1-.675-.246l.061-.06c.373-.186.99-.678 1.662-1.047h-.002zm3.865 6.15c-.184.06-.307.122-.49.184a2.653 2.653 0 0 1-.74-.307c-.061-.061-.185-.123-.245-.246l-.061-1.168c0-.061.06-.123.123-.185a.462.462 0 0 0 .245-.123c.123-.062.185-.062.307-.124 0-.123-.061-.37-.061-.556-.21.119-.438.202-.675.246a2.653 2.653 0 0 1-.74-.308c-.061-.06-.185-.123-.245-.245l-.061-1.168c0-.062.061-.124.123-.186a.462.462 0 0 0 .245-.123l.37-.185.185-.186c.06-.06.06-.06.123-.06.062 0 .123 0 .123.06l.185.186.37.185c.06 0 .06 0 .122.061 0-.061 0-.123.061-.123 0-.123.061-.308.061-.37a1.515 1.515 0 0 1-.554-.246c-.061-.061-.185-.123-.245-.246l-.061-1.291-.185 1.168c-.061.123-.185.185-.245.246a1.57 1.57 0 0 1-.74.307 2.653 2.653 0 0 1-.74-.307c-.06-.062-.185-.124-.245-.246l-.06-.86c.981-.556 2.147-.861 2.761-.186.253.268.406.616.43.984a14.78 14.78 0 0 1-.245 1.476 4.324 4.324 0 0 0 .806 3.941h-.002zm1.66.983l-.062 1.045c-.06.123-.185.185-.245.246-.222.154-.474.259-.74.307a2.653 2.653 0 0 1-.74-.307c-.06-.062-.184-.124-.244-.246l-.061-1.168c0-.061.06-.123.123-.185a.462.462 0 0 0 .245-.124l.37-.185.06-.061-.06-.061c.377.363.844.618 1.353.739zm7.425 1.537a.989.989 0 0 1-.43-.245c-.061-.062-.185-.124-.245-.246l-.061-1.291-.125 1.291c-.061.123-.185.185-.245.246-.222.154-.474.259-.74.307a2.653 2.653 0 0 1-.74-.307c-.06-.062-.184-.124-.245-.246l-.06-1.291-.186 1.291c-.06.123-.184.185-.245.246-.221.154-.474.259-.74.307a2.653 2.653 0 0 1-.739-.307c-.06-.062-.185-.124-.245-.246l-.06-1.291-.186 1.291c-.06.123-.185.185-.245.246-.222.154-.474.259-.74.307a2.653 2.653 0 0 1-.74-.307c-.06-.062-.184-.124-.244-.246l-.061-1.045a3.288 3.288 0 0 0 3.19-1.168.225.225 0 0 1 .185-.061 3.329 3.329 0 0 0 3.314-.431.225.225 0 0 1 .185-.061c.061 0 .123.06.123.185-.03.594-.03 1.19 0 1.783.05.443.159.876.325 1.289zm4.541.615c.124.062.185.124.185.186l-.06 1.168c-.062.123-.186.185-.246.245-.222.155-.474.26-.74.308a2.653 2.653 0 0 1-.74-.308c-.06-.06-.184-.123-.244-.245v-.246h-.123v.246c-.061.123-.185.185-.245.245-.222.155-.474.26-.74.308a2.653 2.653 0 0 1-.74-.308c-.06-.06-.185-.123-.245-.245l-.06-1.292a3 3 0 0 0 1.104.861c.445.195.94.239 1.412.123a2.646 2.646 0 0 0 1.482-1.046zm4.603-4.673l-.123 1.107c-.061.123-.185.186-.245.246-.222.154-.474.259-.74.307a2.653 2.653 0 0 1-.74-.307c-.06-.061-.184-.123-.244-.246l-.123-1.291-.061 1.291c-.061.123-.185.186-.245.246-.222.154-.474.259-.74.307a2.653 2.653 0 0 1-.74-.307c-.06-.061-.185-.123-.245-.246l-.05-1.046a.06.06 0 0 1-.06.061l-.062 1.045-.06.062c.06.123.06.245.122.37a.215.215 0 0 1 .061-.123c.027.185.141.346.307.43l.37.186c.061.061.185.061.245.123.061 0 .123.124.123.186l-.123 1.168c-.061.123-.185.185-.245.245a2.267 2.267 0 0 1-.675.308 3.266 3.266 0 0 0 .061-2.029c-.245-.8-.614-1.23-.123-2.029.74-1.168 3.253-.615 4.357-.061l-.002-.003zm1.903 1.353l-.061.06c-.222.155-.474.26-.74.308a2.653 2.653 0 0 1-.74-.307c-.06-.061-.185-.123-.245-.246l-.056-1.107c.678.33 1.3.767 1.842 1.292zm1.35 1.476l-.061.74c-.061.124-.185.186-.245.246-.222.155-.474.26-.74.308a2.653 2.653 0 0 1-.74-.308c-.06-.06-.185-.123-.245-.245l-.06-1.168c0-.062.06-.124.122-.186a.462.462 0 0 0 .245-.123l.37-.185a.63.63 0 0 0 .307-.37c.372.43.74.86 1.047 1.29zm.859 1.229a1.836 1.836 0 0 1-.491-.245c-.061-.062-.185-.124-.245-.246v-.615l.736 1.106zm1.231 2.581a1.918 1.918 0 0 1-.614-.307c-.06-.062-.185-.124-.245-.246l-.065-1.413h.06c.328.637.617 1.294.864 1.966zm-8.653.677v.185a6.541 6.541 0 0 0-1.534-.185 4.625 4.625 0 0 0-2.885.926v-.862c0-.06.061-.123.123-.185.123-.061.185-.061.307-.123l.37-.185.185-.186c.06-.06.06-.06.123-.06.062 0 .123 0 .123.06l.185.186.37.185c.13.077.278.12.43.123.14-.05.284-.09.43-.123l.37-.185.184-.186c.061-.06.061-.06.123-.06s.123 0 .123.06l.185.186.37.185c.123.061.185.061.307.123.06.011.104.062.107.122l.004-.001zm-8.043-11.744a1.244 1.244 0 0 1-1.412.984.74.74 0 0 1-.614-.43c-.185-.246-.307-.927-.614-.677-.061 0-.061.061-.123.123-.123.124-.307.062-.245-.185.982-2.583 3.62-.676 5.646-.984a2.839 2.839 0 0 1-2.332.615c-.412-.04-.822-.102-1.227-.185-.675-.123-1.166.492-.74 1.045a.698.698 0 0 0 1.166-.43c.127-.183.618-.183.495.124zm11.353 18.325c0 .185-.061.37-.061.556.01.207-.01.414-.061.615a2.062 2.062 0 0 0 1.964 2.152l.06-1.045a.952.952 0 0 1-.613-.74c-.03-.41-.03-.821 0-1.23a.668.668 0 0 1 .675-.556h2.025a.606.606 0 0 1 .614.556c.06.407.06.822 0 1.23a.952.952 0 0 1-.614.74l.06 1.045a2.062 2.062 0 0 0 1.965-2.15v-.615c.01-.188-.01-.375-.06-.556a18.48 18.48 0 0 0-.185-.86 1.277 1.277 0 0 0-.123-.371h-5.34a.875.875 0 0 0-.122.37c-.061.244-.123.55-.184.86zm5.523 10.638h-5.34a.875.875 0 0 0-.122.37 5.13 5.13 0 0 1-.245.927c0 .185-.061.37-.061.556.01.207-.01.414-.061.615a2.1 2.1 0 0 0 1.964 2.152l.06-1.045a.952.952 0 0 1-.613-.741 2.066 2.066 0 0 1 0-.615c-.01-.207.01-.414.06-.615a.668.668 0 0 1 .676-.556h2.023a.606.606 0 0 1 .614.556v.615c.01.207-.01.414-.061.615a.952.952 0 0 1-.614.741l.06 1.045a2.062 2.062 0 0 0 1.965-2.152v-.615c.01-.188-.01-.375-.061-.556a18.48 18.48 0 0 0-.185-.86c.003-.13-.059-.375-.059-.436v-.001zm-7.18-11.192a1.277 1.277 0 0 0-.123-.37h-1.964l.43-1.784c.061-.185.061-.37-.185-.37h-.798a1.6 1.6 0 0 1-1.289-.677l-1.288.556a.132.132 0 0 0-.123.123c0 .061.06.186.06.246.308.556 1.473.615 2.025.615h.555l-.307 1.353h-2.394a.875.875 0 0 0-.123.37l-.184.927c-.061.245-.061.492-.123.8a1.932 1.932 0 0 0 .74 1.66 3.948 3.948 0 0 0 2.208.555h.123a4.154 4.154 0 0 0 2.27-.556 1.932 1.932 0 0 0 .74-1.66c0-.245-.06-.556-.06-.8a2.554 2.554 0 0 0-.19-.987zm-1.105 2.091c-.044.18-.127.349-.245.492-.38.252-.836.36-1.289.308h-.185c-.45.03-.9-.077-1.289-.308a.76.76 0 0 1-.245-.492 3.483 3.483 0 0 1 0-.8.668.668 0 0 1 .675-.555h2.025a.606.606 0 0 1 .614.556 4.09 4.09 0 0 1-.06.8zm2.578 5.535a2.1 2.1 0 0 0 1.964 2.152l.06-1.045a.952.952 0 0 1-.613-.741c-.03-.41-.03-.82 0-1.23a.668.668 0 0 1 .675-.555h2.025a.606.606 0 0 1 .614.555c.061.408.061.822 0 1.23a.952.952 0 0 1-.614.741l.06 1.045a2.062 2.062 0 0 0 1.965-2.152v-.618c.01-.187-.01-.375-.061-.556a18.48 18.48 0 0 0-.185-.86 1.277 1.277 0 0 0-.123-.371h-5.337a.875.875 0 0 0-.123.37 5.13 5.13 0 0 1-.245.927c0 .185-.061.37-.061.556.06.12-.001.305-.001.552zm-1.473-2.091a.875.875 0 0 0-.123-.37h-5.278a.875.875 0 0 0-.123.37 18.48 18.48 0 0 1-.184.86c-.061.246-.061.556-.123.8-.061 1.721.74 2.213 2.331 2.213h.798c.338-.028.678.036.982.186.2.066.373.196.491.37l1.29-.556a1.34 1.34 0 0 0-.308-.492 2.698 2.698 0 0 0-1.84-.491h-.799a1.88 1.88 0 0 1-1.289-.371.829.829 0 0 1-.306-.556 3.482 3.482 0 0 1 0-.8.668.668 0 0 1 .674-.555h2.023a.606.606 0 0 1 .614.556.557.557 0 0 0 .061.307h1.35c0-.185-.06-.43-.06-.615-.058-.241-.115-.549-.181-.856zm.061 7.319a1.175 1.175 0 0 0-.185-.492l-1.166.556c.142.372.163.78.061 1.164a.926.926 0 0 1-.675.742c-.614.185-2.025.245-2.516-.246a1.308 1.308 0 0 1-.184-1.415l.49-1.721c0-.123.123-.615.062-.676a1.463 1.463 0 0 0-.555-.123h-.798a.87.87 0 0 1-.061.555c-.081.395-.184.785-.307 1.169a5.29 5.29 0 0 0-.245 1.291 1.932 1.932 0 0 0 .74 1.66 3.508 3.508 0 0 0 2.208.556h.123a4.154 4.154 0 0 0 2.271-.556 1.932 1.932 0 0 0 .74-1.66c.094-.26.095-.545.002-.805l-.005.001zm7.794-13.341c-.123-.492-.185-.677-.614-.677H42.65c-.43 0-.491.186-.675.677-.061.245-.185.615-.245.926-.061.246-.061.984-.123 1.23a2.563 2.563 0 0 0 .704 1.85 2.552 2.552 0 0 0 1.812.794c.185 0 .245 0 .307-.185l.123-1.722a.647.647 0 0 1-.675-.492 6.655 6.655 0 0 1 0-1.107.278.278 0 0 1 .185-.185h2.084c.1.005.18.085.185.185.03.368.03.739 0 1.107-.061.37-.43.431-.675.492l.06 1.722c.062.185.124.185.308.185a2.603 2.603 0 0 0 1.836-.786c.484-.496.75-1.165.742-1.858 0-.246-.062-.984-.062-1.23-.122-.38-.184-.684-.245-.93v.004zm-6.444.984c0 .185-.061.43-.061.615.01.207-.01.414-.061.615 0 1.476.925 2.213 2.332 2.399h.06l.062-1.476a.781.781 0 0 1-.675-.615c-.03-.39-.03-.78 0-1.169a.526.526 0 0 1 .43-.37h2.023a.526.526 0 0 1 .43.37c.061.387.061.782 0 1.169a.781.781 0 0 1-.675.615l.06 1.476h.062c1.412-.186 2.394-.927 2.394-2.399v-.615c.01-.207-.01-.414-.061-.615l-.185-.927a1.175 1.175 0 0 0-.185-.492.37.37 0 0 0-.245-.06h-5.152a.37.37 0 0 0-.245.06 1.175 1.175 0 0 0-.185.492c-.01.311-.051.62-.122.923l-.001.004zm-.123 11.868c0 .185-.061.43-.061.615.01.207-.01.414-.061.615 0 1.476.925 2.213 2.332 2.399H44l.062-1.476a.781.781 0 0 1-.675-.615 2.066 2.066 0 0 1 0-.615c-.01-.188.01-.376.06-.556a.526.526 0 0 1 .43-.37h2.026a.526.526 0 0 1 .43.37v1.168a.781.781 0 0 1-.675.615l.06 1.476h.06c1.412-.185 2.394-.926 2.394-2.399v-.615c.01-.207-.01-.414-.061-.615l-.185-.926a1.61 1.61 0 0 0-.185-.492.37.37 0 0 0-.245-.062h-5.151a.37.37 0 0 0-.245.062 1.175 1.175 0 0 0-.185.492l-.185.929zm6.444-.984c-.123-.492-.185-.676-.614-.676h-5.154c-.43 0-.491.185-.675.676-.061.245-.185.615-.245.926-.06.312-.061.984-.123 1.292-.061 1.599 1.043 2.46 2.516 2.644.185 0 .245 0 .307-.185l.123-1.66a.647.647 0 0 1-.675-.492 6.654 6.654 0 0 1 0-1.108c.005-.1.085-.18.185-.185h2.087a.163.163 0 0 1 .184.185c.031.369.031.74 0 1.108-.06.37-.43.43-.675.491l.061 1.66c.062.186.123.186.307.186a2.603 2.603 0 0 0 1.837-.786c.483-.496.75-1.165.741-1.858 0-.246-.06-.984-.06-1.292a4.756 4.756 0 0 0-.127-.93v.004zm-7.49-11.437a4.241 4.241 0 0 0-.185-.492h-1.84l.37-1.476c.06-.308 0-.677-.43-.677H37.8a1.56 1.56 0 0 1-1.226-.74l-1.473.676c-.307.123-.37.307-.185.615.37.676 1.596.741 2.209.741h.307l-.185.86h-2.083a.37.37 0 0 0-.245.062 1.175 1.175 0 0 0-.185.492 4.91 4.91 0 0 0-.184.926c-.061.246-.061.556-.123.8a2.093 2.093 0 0 0 .798 1.844c.696.438 1.51.653 2.331.616h.123a4.11 4.11 0 0 0 2.394-.616c.57-.439.89-1.128.86-1.848 0-.245-.061-.556-.061-.8a27.046 27.046 0 0 0-.185-.988l-.003.005zm-1.534 2.09c-.06.124-.06.308-.185.371-.352.204-.76.29-1.165.246h-.185a2.487 2.487 0 0 1-1.166-.246.556.556 0 0 1-.185-.43v-.742a.526.526 0 0 1 .43-.37h2.025a.526.526 0 0 1 .43.37v.8l.001.002zm-.245-.06a.47.47 0 0 1-.123.307 1.732 1.732 0 0 1-.982.246h-.245c-.49 0-.859-.062-.981-.246a.47.47 0 0 1-.123-.307v-.677a.278.278 0 0 1 .184-.185h2.087c.1.005.18.085.185.185.061.22.061.452.001.672l-.003.005zm2.028-2.1c-.123-.492-.185-.676-.614-.676h-1.35l.307-1.23c.123-.492-.123-.926-.614-.926h-.798c-.49 0-1.043-.37-1.043-.8l-1.78.742a.572.572 0 0 0-.307.926c.307.615 1.043.86 2.455.86l-.123.432h-1.902c-.43 0-.49.185-.675.676-.06.245-.184.615-.245.926-.06.312-.06.556-.123.861a2.3 2.3 0 0 0 .925 2.029 4.425 4.425 0 0 0 2.516.676h.123a3.995 3.995 0 0 0 2.516-.676 2.3 2.3 0 0 0 .924-2.029c0-.246-.06-.556-.06-.86a4.19 4.19 0 0 0-.132-.93zm.74 7.69c0 1.476.924 2.213 2.332 2.398h.06l.062-1.475a.781.781 0 0 1-.675-.616c-.031-.388-.031-.779 0-1.168a.526.526 0 0 1 .43-.37h2.147a.526.526 0 0 1 .43.37c.062.387.062.781 0 1.168a.781.781 0 0 1-.675.616l.061 1.475h.061c1.412-.185 2.394-.926 2.394-2.398v-.615c.01-.207-.01-.415-.06-.616l-.186-.926a1.61 1.61 0 0 0-.185-.492.37.37 0 0 0-.245-.061h-5.157a.37.37 0 0 0-.245.061 1.175 1.175 0 0 0-.185.492c-.061.308-.185.615-.245.926 0 .186-.061.431-.061.616.01.207-.011.414-.062.615h.004zm6.564-2.214c-.123-.491-.185-.676-.614-.676H42.59c-.43 0-.491.185-.675.676-.061.246-.185.616-.245.927-.06.311-.061.984-.123 1.291 0 1.6 1.043 2.4 2.516 2.645.185 0 .245 0 .307-.186l.123-1.66c-.245-.061-.614-.123-.675-.492a6.666 6.666 0 0 1 0-1.107c.005-.1.085-.18.185-.185h2.025a.163.163 0 0 1 .184.185c.031.368.031.739 0 1.107-.06.37-.43.43-.674.492l.06 1.66c.062.186.124.186.308.186a2.603 2.603 0 0 0 1.836-.789c.484-.497.75-1.166.74-1.86 0-.246-.062-.984-.062-1.292l-.183-.922zm-7.61.124a4.242 4.242 0 0 0-.184-.492h-5.402a.37.37 0 0 0-.245.06c-.123.062-.184.371-.184.493a4.912 4.912 0 0 0-.185.926c-.061.246-.061.556-.123.8-.061 1.844.798 2.46 2.577 2.46h.798c.314-.02.628.021.925.123.21.056.374.22.43.43l1.718-.74c-.37-1.108-1.35-1.292-2.455-1.292h-.798a1.96 1.96 0 0 1-1.166-.308.532.532 0 0 1-.185-.37v-.741a.526.526 0 0 1 .43-.37h2.08a.526.526 0 0 1 .43.37c0 .123.061.307.061.492h1.784v-.062c0-.245-.061-.555-.061-.8a7.66 7.66 0 0 1-.246-.98h.002zm.246-.061c-.123-.492-.185-.677-.614-.677h-5.034c-.43 0-.49.186-.675.677-.097.3-.159.611-.184.926-.061.308-.061.615-.123.86-.185 2.092.859 2.706 2.638 2.706h.798a2.4 2.4 0 0 1 .798.123c.144.051.256.164.307.308.061.245.123.307.245.185l1.903-.86c-.307-1.23-1.227-1.66-2.7-1.66h-.798c-.49 0-.859-.062-.982-.246a.32.32 0 0 1-.123-.246v-.686c.006-.1.086-.18.185-.186h2.144a.163.163 0 0 1 .185.186c.062.22.062.455 0 .676h2.271v-.246c0-.245-.06-.555-.06-.86-.06-.366-.121-.674-.182-.98zm-.123 7.379c0-.123-.061-.185-.061-.308-.061-.185-.185-.492-.43-.37l-1.35.615a.06.06 0 0 0 .061.061c.135.374.177.775.123 1.168a.653.653 0 0 1-.49.556c-.492.186-1.842.246-2.21-.185a1.319 1.319 0 0 1-.185-1.168l.491-1.722c.061-.185.185-.676 0-.926-.123-.185-.49-.185-.74-.185h-1.102s-.123 0-.123.06a.67.67 0 0 1 .123.677c-.08.395-.183.785-.307 1.168a5.24 5.24 0 0 0-.245 1.353 2.258 2.258 0 0 0 .798 1.844c.694.446 1.51.66 2.332.616h.123a4.11 4.11 0 0 0 2.395-.607 2.14 2.14 0 0 0 .859-1.845c.01-.269-.011-.539-.063-.803zm-.614-.927l-1.596.742a.464.464 0 0 1 .123.245c.131.332.174.692.123 1.045-.06.246-.123.308-.37.37a2.79 2.79 0 0 1-2.025-.122c-.185-.186-.245-.492-.123-.984l.491-1.722c.307-1.045.061-1.352-.924-1.352h-1.1c-.307 0-.43.245-.246.43.061.062.123.124.061.431-.272.84-.458 1.706-.554 2.583a2.3 2.3 0 0 0 .924 2.03c.74.5 1.626.738 2.516.676h.123a3.995 3.995 0 0 0 2.516-.677A2.3 2.3 0 0 0 41 45.445c0-.245-.061-.556-.061-.86-.067-.372-.252-.986-.801-.802l-.002-.004zm9.144-30.684C40.64 4.42 27.088 3.07 16.914 9.873 6.74 16.673 2.78 29.73 7.454 41.055c4.676 11.324 16.685 17.761 28.68 15.372C48.13 54.04 56.771 43.49 56.77 31.235a25.69 25.69 0 0 0-7.49-18.137v-.003zm-18.104-8.36c12.59.024 23.411 8.953 25.85 21.33 2.439 12.376-4.184 24.756-15.82 29.573-11.637 4.817-25.048.73-32.038-9.763-6.99-10.493-5.612-24.471 3.29-33.392a26.363 26.363 0 0 1 18.718-7.748zM46.64 29.701h1.595l-.06-.984c0-.246-.062-.492-.062-.676-.06-.062-.185-.062-.245-.124l-.185-.185c0-.061 0-.061-.06-.061-.062 0-.124 0-.124.061l-.184.185-.37.186c-.061.06-.185.06-.245.123-.061 0-.123.123-.123.185l.06 1.23c-.06-.001.003.06.003.06zm-2.21 0h1.902l.06-.061.062-1.23c0-.06-.061-.123-.123-.185a.462.462 0 0 1-.245-.123l-.37-.186-.185-.185c-.061-.061-.061-.061-.123-.061s-.123 0-.123.061l-.185.185-.37.186c-.06.06-.185.06-.245.123-.06 0-.123.123-.123.185l.061 1.23.008.06zm-2.208 0h1.903l.06-.061.062-1.23c0-.06-.061-.123-.123-.185a.462.462 0 0 1-.245-.123l-.37-.186-.185-.185c-.061-.061-.061-.061-.123-.061s-.123 0-.123.061l-.185.185-.37.186c-.06.06-.185.06-.245.123-.06 0-.123.123-.123.185l.061 1.23.006.06zm5.46-3.75c.188.495.313 1.011.37 1.537-.06 0-.06-.06-.123-.06-.06-.062-.185-.124-.245-.246l-.06-1.169v-.185c.06 0 .06.061.06.123h-.001zm-.122 0l-.061 1.107c-.061.124-.185.186-.245.246-.222.154-.475.26-.74.308a2.653 2.653 0 0 1-.74-.308c-.06-.061-.185-.123-.245-.245l-.117-1.108v-.06c0-.062.06-.124.123-.186a.462.462 0 0 0 .242-.124l.37-.186.185-.185c.06-.061.06-.061.123-.061.062 0 .123 0 .123.061l.185.185.37.186c.06.06.184.06.244.123.061 0 .123.123.123.185l.06.062zm-2.21 0l-.06 1.107c-.061.124-.185.186-.245.246-.222.154-.474.26-.74.308a2.653 2.653 0 0 1-.74-.308c-.06-.061-.185-.123-.245-.245l-.056-1.108v-.06c0-.062.06-.124.123-.186a.462.462 0 0 0 .245-.123l.37-.186.185-.185h.123c.06 0 .123 0 .123.061l.184.186.37.185c.061.061.185.061.245.123.061 0 .123.123.123.185h-.004zm-2.208 0l-.061 1.107c-.061.124-.185.186-.245.246-.222.154-.474.26-.74.308a2.653 2.653 0 0 1-.74-.308c-.06-.061-.185-.123-.245-.245l-.056-1.108v-.06c0-.062.061-.124.123-.186a.462.462 0 0 0 .245-.123l.37-.186.185-.185c.06-.061.06-.061.123-.061.062 0 .123 0 .123.061l.185.185.37.186c.06.06.184.06.244.123.061 0 .123.123.123.185v.061h-2.153 2.149zm-2.394 1.292l-.123-.123a6.504 6.504 0 0 0-.74-.616 5.303 5.303 0 0 0-1.043-.43v-.186c0-.06.061-.123.123-.185a.319.319 0 0 0 .247-.122l.37-.186.185-.185h.123c.061 0 .123 0 .123.061l.185.186.37.185c.06.061.185.061.245.123.06 0 .123.123.123.185v1.108l-.188.185zm-7.12-10.27c.001-1.446.251-2.881.74-4.242-1.596-.371-2.394-1.169-3.927-1.292a3.662 3.662 0 0 0-3.191.927 2.513 2.513 0 0 0-.675 1.844c-.01.147.01.293.06.431a2.176 2.176 0 0 0-1.717 2.091c.01.251.052.5.123.741a1.47 1.47 0 0 1 1.817-.088c.553.394.766 1.116.515 1.748a1.609 1.609 0 0 1-1.412.984 1.631 1.631 0 0 1-.74-.185 3.13 3.13 0 0 1-1.412-2.644c0-1.6.925-2.583-.307-3.997-1.473-1.783-4.295 0-5.83 1.168A20.564 20.564 0 0 0 9.45 30.693 20.228 20.228 0 0 0 15.36 45a20.146 20.146 0 0 0 14.28 5.916c.431.017.863-.003 1.29-.061a1.249 1.249 0 0 0 1.105-1.168l1.538-19.679a3.48 3.48 0 0 1 3.682-3.136 3.47 3.47 0 0 1 2.578.861 5.24 5.24 0 0 1 1.105 1.968h.675c-.061-.186-.185-.431-.245-.615a4.987 4.987 0 0 0-1.045-1.722 3.075 3.075 0 0 0-.491-.43 4.627 4.627 0 0 0-2.578-.677 4.12 4.12 0 0 0-4.296 3.69l-1.537 19.678a.555.555 0 0 1-.555.555 8.213 8.213 0 0 1-1.227.062 19.467 19.467 0 0 1-13.872-5.786 19.547 19.547 0 0 1-5.64-13.956 19.847 19.847 0 0 1 7.977-15.741c1.105-.8 3.743-2.706 4.97-1.23.312.334.487.773.491 1.23 0 .43-.185 1.045-.245 1.537a3.89 3.89 0 0 0 .982 3.505c1.29 1.229 3.253.983 3.744-.927a.132.132 0 0 1 .123-.123h.185a2.922 2.922 0 0 0 4.295-1.595l.06-.123h.125c.06 0 .06 0 .122.061s.062.061.062.124v3.75c.004.574.13 1.14.37 1.661.24.55.678.988 1.226 1.23.387.164.815.207 1.227.123a2.156 2.156 0 0 0 1.473-1.045 2.903 2.903 0 0 0 .185-2.153c-.245-.926-.614-1.414-.061-2.336.859-1.353 3.56-.86 4.787-.246 2.761 1.353 4.91 4.551 5.891 7.748.253.884.417 1.79.491 2.706-.01.35.01.699.061 1.045h.614a11.486 11.486 0 0 0-.49-3.751c-.983-3.505-3.377-6.888-6.26-8.302-1.657-.8-4.542-1.168-5.585.492-.74 1.107-.307 1.784 0 2.829.614 2.09-1.473 3.075-2.578 1.968a3.247 3.247 0 0 1-.74-2.337c.002-1.906.002-1.721.002-3.628l-.001.002zm7.365 10.577v-.123c.026.185.14.346.307.431l.37.185c.123.061.185.061.307.124.06 0 .123.06.123.185v1.352h-.123c-.123-.307-.245-.676-.37-.983a7.016 7.016 0 0 0-.614-1.172v.001z"/>
    </g>
</svg>
